HIERARCHY
ROOT Hips
{
	OFFSET 0.000000 0.000000 0.000000 
	CHANNELS 6 Xposition Yposition Zposition Zrotation Yrotation Xrotation
	JOINT LeftUpLeg
	{
		OFFSET 1.363060 -1.794630 0.839290 
		CHANNELS 3 Zrotation Yrotation Xrotation
		JOINT LeftLeg
		{
			OFFSET 2.448110 -6.726130 0.000000 
			CHANNELS 3 Zrotation Yrotation Xrotation
			JOINT LeftFoot
			{
				OFFSET 2.562200 -7.039590 0.000000 
				CHANNELS 3 Zrotation Yrotation Xrotation
				JOINT LeftToeBase
				{
					OFFSET 0.157640 -0.433110 2.322550 
					CHANNELS 3 Zrotation Yrotation Xrotation
					End Site
					{
						OFFSET 0.000000 0.000000 0.000000 
					}
				}
			}
		}
	}
	JOINT RightUpLeg
	{
		OFFSET -1.305520 -1.794630 0.839290 
		CHANNELS 3 Zrotation Yrotation Xrotation
		JOINT RightLeg
		{
			OFFSET -2.542530 -6.985550 0.000000 
			CHANNELS 3 Zrotation Yrotation Xrotation
			JOINT RightFoot
			{
				OFFSET -2.568260 -7.056230 0.000000 
				CHANNELS 3 Zrotation Yrotation Xrotation
				JOINT RightToeBase
				{
					OFFSET -0.164730 -0.452590 2.363150 
					CHANNELS 3 Zrotation Yrotation Xrotation
					End Site
					{
						OFFSET 0.000000 0.000000 0.000000 
					}
				}
			}
		}
	}
	JOINT Spine
	{
		OFFSET 0.028270 2.035590 -0.193380 
		CHANNELS 3 Zrotation Yrotation Xrotation
		JOINT Spine1
		{
			OFFSET 0.056720 2.048850 -0.042750 
			CHANNELS 3 Zrotation Yrotation Xrotation
			JOINT Neck1
			{
				OFFSET -0.054170 1.746240 0.172020 
				CHANNELS 3 Zrotation Yrotation Xrotation
				JOINT Head
				{
					OFFSET 0.104070 1.761360 -0.123970 
					CHANNELS 3 Zrotation Yrotation Xrotation
					End Site
					{
						OFFSET 0.000000 0.000000 0.000000 
					}
				}
			}
			JOINT LeftArm
			{
				OFFSET 3.362410 1.200890 -0.311210 
				CHANNELS 3 Zrotation Yrotation Xrotation
				JOINT LeftForeArm
				{
					OFFSET 4.983000 -0.000000 -0.000000 
					CHANNELS 3 Zrotation Yrotation Xrotation
					JOINT LeftHand
					{
						OFFSET 3.483560 -0.000000 -0.000000 
						CHANNELS 3 Zrotation Yrotation Xrotation
						JOINT LeftHandIndex1
						{
							OFFSET 0.715260 -0.000000 -0.000000 
							CHANNELS 3 Zrotation Yrotation Xrotation
							End Site
							{
								OFFSET 0.000000 0.000000 0.000000 
							}
						}
					}
				}
			}
			JOINT RightArm
			{
				OFFSET -3.136600 1.374050 -0.404650 
				CHANNELS 3 Zrotation Yrotation Xrotation
				JOINT RightForeArm
				{
					OFFSET -5.241900 -0.000000 -0.000000 
					CHANNELS 3 Zrotation Yrotation Xrotation
					JOINT RightHand
					{
						OFFSET -3.444170 -0.000000 -0.000000 
						CHANNELS 3 Zrotation Yrotation Xrotation
						JOINT RightHandIndex1
						{
							OFFSET -0.622530 -0.000000 -0.000000 
							CHANNELS 3 Zrotation Yrotation Xrotation
							End Site
							{
								OFFSET 0.000000 0.000000 0.000000 
							}
						}
					}
				}
			}
		}
	}
}
MOTION
Frames: 13
Frame Time: 0.041667
11.340650 18.410158 -5.092778 -177.778103 -10.152359 -178.854344 -14.885321 -4.988943 2.238738 2.907462 11.943446 40.195101 1.339976 2.016030 31.761902 0.162200 -2.594400 -7.151600 27.965707 24.727501 -2.350441 4.172236 -4.377099 12.395987 9.757371 -32.548542 -10.625057 -0.847700 -5.872400 16.414700 2.545057 -0.534220 -1.864017 -3.178784 -0.656206 -11.603598 16.650302 -10.203324 21.378629 3.668200 -4.021300 8.468400 -89.318698 16.193670 26.262792 24.719492 -24.461877 -6.794201 2.009230 0.529007 19.079916 -7.125000 0.000000 0.000000 85.572523 -13.354659 30.931626 -21.855405 24.966541 -6.366603 1.071484 0.445253 12.502485 7.125000 0.000000 0.000000 
11.363728 18.421226 -5.240667 -177.718337 -10.276447 -179.063343 -14.700849 -4.984256 1.310424 3.502549 12.519636 42.095452 1.359143 2.457143 32.676935 0.086100 -1.892600 -5.208900 28.443929 24.319892 -1.516339 4.224167 -4.127530 11.954571 9.754810 -32.558143 -10.450152 -0.948200 -6.201400 17.370000 2.521955 -0.535659 -1.540561 -3.205127 -0.636017 -11.572477 16.513116 -10.411789 21.539368 3.609300 -4.119300 8.571800 -88.950377 15.916037 26.188712 24.800770 -24.546345 -6.814083 1.950690 0.601050 17.871621 -7.125000 0.000000 0.000000 85.356516 -13.151782 31.399956 -22.111095 25.264053 -6.476615 1.064162 0.446223 12.430390 7.125000 0.000000 0.000000 
11.388102 18.424994 -5.381728 -177.566219 -10.382032 -179.227463 -14.418982 -4.923091 0.265303 4.131703 13.090922 44.015316 1.358407 3.026145 33.475345 0.019800 -0.908100 -2.495900 29.013461 23.874022 -0.744814 4.248148 -3.890297 11.429056 9.925354 -33.090212 -9.083525 -0.608100 -4.991200 13.883600 2.588321 -0.509813 -1.302221 -3.240576 -0.607482 -11.512229 16.389202 -10.420791 21.353195 3.551200 -4.139200 8.484300 -88.638197 15.826085 26.085096 25.051771 -24.814883 -6.918060 1.882255 0.664598 16.452386 -7.125000 0.000000 0.000000 85.124801 -12.881490 31.833637 -22.239028 25.406668 -6.520431 1.070107 0.440239 12.353081 7.125000 0.000000 0.000000 
11.413300 18.427467 -5.517490 -177.134282 -10.438902 -179.336477 -13.869476 -4.873458 -0.968178 4.755796 13.644019 45.964677 1.345584 3.330526 33.790822 0.008400 -0.592400 -1.627700 29.865678 23.283302 -0.141312 4.249337 -3.683534 10.880534 10.039833 -33.663025 -6.697197 -0.162000 -2.593400 7.148600 2.716094 -0.390259 -1.284874 -3.452554 -0.569453 -11.495794 16.576559 -10.510121 21.270064 3.631100 -4.193100 8.436700 -88.284547 16.042792 26.061741 25.435692 -25.229611 -7.100133 1.803227 0.733307 14.975583 -7.125000 0.000000 0.000000 84.979809 -12.735259 32.286460 -22.353856 25.524641 -6.551052 1.085172 0.427678 12.014787 7.125000 0.000000 0.000000 
11.437438 18.431235 -5.654782 -176.705660 -10.505763 -179.472789 -13.358959 -4.878439 -2.172876 5.332546 14.161393 47.964714 1.308906 3.019395 33.274068 0.056100 -1.528500 -4.204300 30.725525 22.844377 0.613537 4.319833 -3.401074 10.330353 9.978198 -33.613747 -6.601217 -0.168200 -2.641700 7.282900 2.801147 -0.243086 -1.330468 -3.712647 -0.527746 -11.551852 16.848749 -10.716879 21.533742 3.754700 -4.280100 8.573600 -87.946963 16.216754 25.990232 25.769049 -25.581673 -7.247961 1.730540 0.782095 13.673513 -7.125000 0.000000 0.000000 84.868111 -12.613906 32.513747 -22.490811 25.675593 -6.601758 1.086334 0.423687 11.895088 7.125000 0.000000 0.000000 
11.456159 18.427702 -5.791015 -176.491776 -10.540391 -179.666960 -13.119610 -4.897376 -3.235152 5.897014 14.652896 49.957775 1.222682 2.650545 32.335054 0.119100 -2.225300 -6.128700 31.345601 22.537861 1.556243 4.441112 -3.047546 9.782413 9.800950 -33.058006 -8.467392 -0.537500 -4.697700 13.048400 2.763873 -0.083491 -1.283967 -3.926542 -0.461480 -11.634015 17.045372 -10.823308 21.553283 3.842200 -4.332700 8.588700 -87.597304 16.236557 25.950824 25.984776 -25.799724 -7.329882 1.646888 0.840255 12.428227 -7.125000 0.000000 0.000000 84.705380 -12.334782 32.554510 -22.491992 25.683599 -6.602662 1.078847 0.428503 12.144960 7.125000 0.000000 0.000000 
11.473350 18.419342 -5.922774 -176.336067 -10.523717 -179.848439 -12.952001 -4.893634 -4.280967 6.455472 15.114550 51.864702 1.116299 2.419652 31.359296 0.086700 -1.899500 -5.228000 31.849770 22.039402 2.306407 4.514375 -2.767584 9.332938 9.613517 -32.560795 -9.201620 -0.764500 -5.583400 15.580400 2.784587 0.029366 -1.143314 -4.052412 -0.405637 -11.658162 16.680690 -10.810470 21.282514 3.674600 -4.359000 8.419700 -87.390698 15.958927 25.285605 25.922911 -25.743701 -7.285058 1.579794 0.916226 11.476049 -7.125000 0.000000 0.000000 84.494138 -11.890641 32.755289 -22.371048 25.549880 -6.546429 1.081364 0.429975 12.164730 7.125000 0.000000 0.000000 
11.490424 18.414515 -6.052766 -176.182986 -10.420270 -179.936545 -12.806958 -4.900909 -5.410812 6.949063 15.537765 53.659130 0.956269 1.977512 29.549627 0.178300 -2.719900 -7.499800 32.336076 21.620440 2.861238 4.516317 -2.617497 9.018999 9.675297 -32.822158 -8.052537 -0.488400 -4.480900 12.433800 2.861396 0.133399 -1.033317 -4.124300 -0.355984 -11.613299 15.980855 -10.890290 21.489374 3.378500 -4.414200 8.464100 -87.336692 15.542345 24.253147 26.149014 -26.000866 -7.359857 1.551864 0.910023 9.726268 -7.125000 0.000000 0.000000 84.280124 -11.474115 32.947625 -22.335409 25.499747 -6.516001 1.092749 0.419637 12.161493 7.125000 0.000000 0.000000 
11.509381 18.410865 -6.183347 -176.094115 -10.322290 179.989630 -12.722309 -4.961995 -6.536766 7.418621 15.931804 55.323106 0.859542 1.528032 28.147638 0.164700 -2.615000 -7.208700 32.783073 21.218763 3.375226 4.514583 -2.513441 8.856949 9.648229 -32.821033 -7.391837 -0.363400 -3.872300 10.717800 2.848519 0.309867 -0.976293 -4.228477 -0.253866 -11.580682 16.945402 -10.742377 20.748913 3.782800 -4.365900 8.134300 -87.163715 15.321570 23.555314 26.329213 -26.221988 -7.451917 1.488139 0.965332 8.539932 -7.125000 0.000000 0.000000 84.094651 -11.163722 33.062856 -22.364826 25.534171 -6.532884 1.096570 0.410516 12.147719 7.125000 0.000000 0.000000 
11.527867 18.406861 -6.313693 -176.053791 -10.206063 179.915896 -12.682788 -5.050242 -7.638238 7.821247 16.287129 56.867525 0.856618 0.602010 26.755568 0.228700 -3.078300 -8.497000 33.149015 20.894068 3.877230 4.553632 -2.397978 8.835086 9.381079 -32.031608 -8.815476 -0.683800 -5.287100 14.729300 2.805170 0.465086 -1.028902 -4.288339 -0.185266 -11.683630 16.245488 -11.107638 21.703104 3.498700 -4.517200 8.552400 -87.006768 15.320764 22.877113 26.464978 -26.368325 -7.503974 1.427488 1.006386 7.960542 -7.125000 0.000000 0.000000 83.904989 -10.796706 33.263006 -22.267487 25.440553 -6.514816 1.092178 0.416176 11.790819 7.125000 0.000000 0.000000 
11.539053 18.400150 -6.435443 -176.005617 -9.966502 179.900781 -12.664854 -5.022767 -8.814034 8.178720 16.610749 58.285705 0.884385 -0.513232 25.092498 0.511800 -4.585700 -12.730700 33.457550 20.740907 4.259989 4.578099 -2.334654 8.892423 9.117850 -31.304182 -10.051739 -0.870100 -5.947300 16.631600 2.731333 0.684853 -1.048313 -4.451268 -0.078036 -11.718904 16.714444 -10.997540 21.222792 3.695700 -4.487600 8.310500 -86.915726 15.166795 21.957220 26.531140 -26.453550 -7.511658 1.388956 1.024853 7.592341 -7.125000 0.000000 0.000000 83.756662 -10.359022 33.276186 -22.077666 25.229071 -6.437149 1.094257 0.419681 11.747119 7.125000 0.000000 0.000000 
11.550239 18.392849 -6.557310 -176.054826 -9.666729 179.818741 -12.762666 -4.936030 -9.898485 8.524302 16.907964 59.567455 0.871874 -1.288054 23.311217 0.861500 -5.918600 -16.548500 33.711131 20.584407 4.688555 4.565271 -2.331642 9.042604 8.981261 -30.924786 -10.365549 -0.654000 -5.172600 14.401600 2.650509 0.884330 -0.886038 -4.533903 0.035488 -11.682613 16.865664 -11.069755 20.954843 3.748600 -4.535000 8.208700 -86.863089 14.566357 20.647723 26.184865 -26.127225 -7.333695 1.379924 1.071129 7.255680 -7.125000 0.000000 0.000000 83.629704 -9.853856 33.115542 -21.860182 24.969562 -6.332039 1.106419 0.407643 12.277931 7.125000 0.000000 0.000000 
11.563309 18.388375 -6.684830 -176.219811 -9.320580 179.668070 -12.997585 -4.853683 -10.856040 8.837974 17.172983 60.662919 0.828718 -1.694513 21.712476 1.041300 -6.489800 -18.212400 33.894111 20.425101 5.208801 4.540372 -2.351950 9.273414 8.831816 -30.490321 -10.638608 -0.466600 -4.381200 12.151700 2.498755 1.085452 -0.708865 -4.559227 0.158418 -11.698990 16.590484 -11.098690 20.852416 3.637300 -4.579600 8.107000 -86.863167 13.907570 18.971002 25.750286 -25.708929 -7.108337 1.386903 1.108298 7.231477 -7.125000 0.000000 0.000000 83.535167 -9.370237 32.996348 -21.596990 24.655670 -6.209980 1.123492 0.388018 12.852359 7.125000 0.000000 0.000000 
